<svg width="24" height="22" fill="none" xmlns="http://www.w3.org/2000/svg"><path d="M1.471 9.646s10.615-4.61 14.296-6.234C17.18 2.763 21.964.685 21.964.685s2.21-.909 2.025 1.299c-.061.909-.552 4.09-1.043 7.532-.736 4.87-1.534 10.193-1.534 10.193s-.123 1.494-1.166 1.754-2.76-.91-3.067-1.17c-.246-.194-4.602-3.116-6.197-4.544-.43-.39-.92-1.169.06-2.078 2.21-2.143 4.848-4.805 6.443-6.493.737-.779 1.473-2.597-1.595-.39-4.356 3.182-8.651 6.169-8.651 6.169s-.982.65-2.823.065c-1.84-.585-3.988-1.364-3.988-1.364s-1.472-.974 1.043-2.012z" fill="#0097AA"/></svg>