<svg width="166" height="46" viewBox="0 0 166 46" fill="none" xmlns="http://www.w3.org/2000/svg">
<path d="M82.252 16.4656L82.4001 28.1309H77.6016V0.785032H82.252V11.3193H83.4284C84.9163 11.3193 85.4629 11.4934 86.8559 10.6333L92.8394 0.670151H98.1829L90.2989 13.3644L94.5412 20.5679C96.1102 23.3274 97.3588 22.8297 98.4353 22.8297C98.6885 22.8297 98.9418 22.7938 99.1951 22.7938V28.1309C96.4407 28.1309 93.2937 28.6316 90.6976 23.9726L86.1704 16.1225C85.8276 16.4656 84.4566 16.4656 83.9038 16.4656H82.252Z" fill="#0097AA"/>
<path d="M157.903 11.3927L150.503 20.5559L143.057 11.3927V28.1914H138.333V4.6911L134.959 0.670151H140.358L150.48 13.4031L160.939 0.670151H166L162.626 4.6911V28.1914H157.903V11.3927Z" fill="#0097AA"/>
<path d="M57.6949 17.089V24.1901H72.0371V28.1914H53.1104V0.80629H70.5735V5.02619H57.6949V13.0681C59.1917 12.1136 59.7962 12.076 61.4261 12.076H66.848V16.1508H61.4261C59.8295 16.1508 59.1917 16.208 57.6949 17.089Z" fill="#0097AA"/>
<path d="M36.1547 12.5165H40.5454C42.9071 12.5165 44.2044 11.2684 44.2044 8.62536C44.2044 5.87217 42.9404 4.84431 40.5454 4.84431H32.3902V13.4032C33.887 12.4487 34.5248 12.5165 36.1547 12.5165ZM32.3902 28.1914H27.8057V0.80629H40.5454C44.9362 0.80629 47.7968 3.74303 47.7968 8.62536C47.7968 13.471 44.9362 16.5546 40.5454 16.5546H36.1547C34.5581 16.5546 33.887 16.5431 32.3902 17.4241V28.1914Z" fill="#0097AA"/>
<path d="M20.4901 28.1914H15.8577V4.84431H4.72358V28.1466L0 28.1914V0.80629H20.4901V28.1914Z" fill="#0097AA"/>
<path d="M159.178 40.6285L157.225 37.875H158.517L159.883 39.8984L161.249 37.875H162.53L160.577 40.6285L162.626 43.4966H161.345L159.883 41.3481L158.41 43.4966H157.129L159.178 40.6285Z" fill="#3D576B"/>
<path d="M149.339 43.4966V37.875H150.47V40.1383H151.741C152.267 40.1383 152.701 40.2009 153.043 40.326C153.384 40.4442 153.637 40.6215 153.801 40.8579C153.964 41.0943 154.046 41.3933 154.046 41.7549C154.046 42.1095 153.964 42.4189 153.801 42.6831C153.644 42.9404 153.395 43.142 153.053 43.288C152.719 43.4271 152.278 43.4966 151.73 43.4966H149.339ZM151.644 42.6623C152.022 42.6623 152.328 42.5997 152.562 42.4745C152.804 42.3424 152.925 42.1164 152.925 41.7966C152.925 41.4907 152.815 41.2821 152.594 41.1708C152.374 41.0526 152.057 40.9935 151.644 40.9935H150.47V42.6623H151.644ZM154.964 43.4966V37.875H156.096V43.4966H154.964Z" fill="#3D576B"/>
<path d="M143.601 37.875V40.1591H146.44V37.875H147.571V43.4966H146.44V41.0457H143.601V43.4966H142.469V37.875H143.601Z" fill="#3D576B"/>
<path d="M136.78 39.9297C136.78 40.2287 136.865 40.4512 137.036 40.5972C137.207 40.7432 137.449 40.8162 137.762 40.8162C138.103 40.8162 138.417 40.771 138.701 40.6806C138.986 40.5833 139.274 40.4546 139.566 40.2947V37.875H140.697V43.4966H139.566V41.0665C139.267 41.2542 138.961 41.4037 138.648 41.515C138.335 41.6262 137.965 41.6819 137.538 41.6819C136.947 41.6819 136.485 41.5324 136.15 41.2334C135.816 40.9275 135.648 40.5103 135.648 39.9818V37.875H136.78V39.9297Z" fill="#3D576B"/>
<path d="M131.941 37.771C132.447 37.771 132.881 37.8753 133.244 38.0839C133.607 38.2855 133.884 38.5775 134.076 38.9599C134.276 39.3424 134.375 39.7943 134.375 40.3158V40.9207H130.511C130.525 41.4978 130.678 41.9394 130.97 42.2453C131.269 42.5512 131.685 42.7042 132.219 42.7042C132.589 42.7042 132.916 42.6729 133.201 42.6103C133.493 42.5408 133.792 42.44 134.098 42.3079V43.2257C133.813 43.3508 133.521 43.4447 133.222 43.5073C132.931 43.5699 132.582 43.6012 132.176 43.6012C131.621 43.6012 131.13 43.4934 130.703 43.2778C130.276 43.0623 129.942 42.7425 129.7 42.3183C129.465 41.8872 129.348 41.3588 129.348 40.733C129.348 40.1003 129.454 39.5649 129.668 39.1268C129.888 38.6888 130.191 38.355 130.575 38.1256C130.967 37.8892 131.422 37.771 131.941 37.771ZM131.941 38.6262C131.536 38.6262 131.208 38.7548 130.959 39.0121C130.717 39.2694 130.575 39.6344 130.532 40.1072H133.244C133.244 39.8152 133.197 39.5579 133.105 39.3354C133.012 39.1129 132.87 38.9391 132.678 38.8139C132.486 38.6888 132.24 38.6262 131.941 38.6262Z" fill="#3D576B"/>
<path d="M123.99 39.9297C123.99 40.2287 124.075 40.4512 124.246 40.5972C124.417 40.7432 124.659 40.8162 124.972 40.8162C125.313 40.8162 125.627 40.771 125.911 40.6806C126.196 40.5833 126.484 40.4546 126.776 40.2947V37.875H127.907V43.4966H126.776V41.0665C126.477 41.2542 126.171 41.4037 125.858 41.515C125.545 41.6262 125.175 41.6819 124.748 41.6819C124.157 41.6819 123.695 41.5324 123.36 41.2334C123.026 40.9275 122.858 40.5103 122.858 39.9818V37.875H123.99V39.9297Z" fill="#3D576B"/>
<path d="M119.099 37.771C119.825 37.771 120.366 37.9274 120.721 38.2403C121.077 38.5462 121.255 39.0295 121.255 39.69V43.4969H120.455L120.23 42.7146H120.188C120.024 42.9163 119.853 43.0832 119.675 43.2153C119.505 43.3474 119.305 43.4447 119.078 43.5073C118.857 43.5699 118.587 43.6012 118.266 43.6012C117.925 43.6012 117.615 43.5421 117.338 43.4239C117.067 43.2987 116.854 43.111 116.697 42.8607C116.541 42.6034 116.462 42.2835 116.462 41.9011C116.462 41.331 116.683 40.8964 117.124 40.5974C117.573 40.2984 118.252 40.135 119.163 40.1072L120.145 40.0759V39.763C120.145 39.3458 120.049 39.0538 119.857 38.8869C119.665 38.7201 119.394 38.6366 119.046 38.6366C118.747 38.6366 118.462 38.6783 118.192 38.7618C117.921 38.8452 117.665 38.946 117.423 39.0642L117.06 38.2612C117.331 38.1221 117.64 38.0074 117.989 37.917C118.345 37.8196 118.715 37.771 119.099 37.771ZM119.366 40.8164C118.711 40.8442 118.256 40.952 117.999 41.1398C117.75 41.3205 117.626 41.5778 117.626 41.9116C117.626 42.2036 117.715 42.4157 117.893 42.5478C118.078 42.6799 118.309 42.7459 118.587 42.7459C119.035 42.7459 119.405 42.6242 119.697 42.3809C119.988 42.1375 120.134 41.7725 120.134 41.2858V40.7956L119.366 40.8164Z" fill="#3D576B"/>
<path d="M113.12 37.771C113.811 37.771 114.366 38.0143 114.785 38.501C115.212 38.9878 115.426 39.7144 115.426 40.6808C115.426 41.3136 115.33 41.849 115.138 42.287C114.946 42.7251 114.675 43.0553 114.327 43.2778C113.978 43.4934 113.572 43.6012 113.11 43.6012C112.818 43.6012 112.562 43.5664 112.341 43.4969C112.121 43.4204 111.932 43.323 111.775 43.2048C111.626 43.0797 111.494 42.9476 111.38 42.8085H111.306C111.327 42.9337 111.345 43.0832 111.359 43.257C111.373 43.4239 111.38 43.5733 111.38 43.7055V46H110.249V37.8753H111.167L111.327 38.6262H111.38C111.494 38.4732 111.63 38.3307 111.786 38.1986C111.943 38.0665 112.131 37.9622 112.352 37.8857C112.572 37.8092 112.829 37.771 113.12 37.771ZM112.853 38.6783C112.498 38.6783 112.213 38.7479 112 38.8869C111.786 39.0191 111.63 39.2207 111.53 39.4919C111.437 39.7561 111.388 40.0933 111.38 40.5035V40.6704C111.38 41.1015 111.427 41.47 111.519 41.776C111.612 42.075 111.765 42.3044 111.978 42.4643C112.199 42.6173 112.498 42.6938 112.875 42.6938C113.195 42.6938 113.455 42.6103 113.654 42.4435C113.86 42.2696 114.013 42.0298 114.113 41.7238C114.213 41.4179 114.262 41.0633 114.262 40.66C114.262 40.0481 114.149 39.5649 113.921 39.2103C113.693 38.8557 113.337 38.6783 112.853 38.6783Z" fill="#3D576B"/>
<path d="M108.479 37.875V43.4966H107.348V38.772H104.636V43.4966H103.505V37.875H108.479Z" fill="#3D576B"/>
<path d="M95.1666 43.4966H93.8857L95.5082 41.1812C95.2876 41.1117 95.0777 41.0144 94.8784 40.8892C94.6863 40.7641 94.5297 40.5902 94.4088 40.3677C94.2878 40.1452 94.2273 39.8741 94.2273 39.5542C94.2273 39.0119 94.423 38.5982 94.8144 38.3131C95.2058 38.021 95.7181 37.875 96.3514 37.875H98.9559V43.4966H97.8245V41.3064H96.5863L95.1666 43.4966ZM95.3267 39.5646C95.3267 39.8636 95.4406 40.0896 95.6683 40.2426C95.896 40.3886 96.2127 40.4616 96.6183 40.4616H97.8245V38.7303H96.4262C96.0348 38.7303 95.7537 38.8102 95.5829 38.9701C95.4121 39.1301 95.3267 39.3282 95.3267 39.5646Z" fill="#3D576B"/>
<path d="M92.8866 43.4966H91.7445V38.7616H90.1221C90.0509 39.6237 89.9619 40.3642 89.8552 40.9831C89.7556 41.595 89.6239 42.0921 89.4603 42.4745C89.3037 42.8569 89.108 43.1385 88.8732 43.3193C88.6455 43.4932 88.3715 43.5801 88.0513 43.5801C87.9374 43.5801 87.8271 43.5696 87.7204 43.5488C87.6137 43.5349 87.5211 43.5105 87.4429 43.4758V42.631C87.4927 42.6449 87.546 42.6588 87.603 42.6727C87.667 42.6796 87.7311 42.6831 87.7951 42.6831C87.9374 42.6831 88.0655 42.6275 88.1794 42.5162C88.3003 42.405 88.4071 42.2312 88.4996 41.9948C88.5992 41.7584 88.6882 41.4524 88.7665 41.0769C88.8518 40.6945 88.923 40.2391 88.9799 39.7107C89.044 39.1822 89.1009 38.5703 89.1507 37.875H92.8866V43.4966Z" fill="#3D576B"/>
<path d="M86.3494 37.875V42.6205H87.1927V45.4678H86.1359V43.4966H82.1652V45.4678H81.1191V42.6205H81.5781C81.8841 42.1894 82.1403 41.7166 82.3467 41.2021C82.553 40.6876 82.7096 40.1487 82.8163 39.5855C82.9302 39.0153 82.9978 38.4452 83.0191 37.875H86.3494ZM84.0011 38.7303C83.9584 39.1822 83.8802 39.6446 83.7663 40.1174C83.6596 40.5902 83.5208 41.0422 83.35 41.4733C83.1863 41.9044 82.9907 42.2868 82.7629 42.6205H85.2393V38.7303H84.0011Z" fill="#3D576B"/>
<path d="M75.1944 37.771C75.6996 37.771 76.1337 37.8753 76.4966 38.0839C76.8595 38.2855 77.1371 38.5775 77.3292 38.9599C77.5284 39.3424 77.6281 39.7943 77.6281 40.3158V40.9207H73.7641C73.7783 41.4978 73.9313 41.9394 74.223 42.2453C74.5219 42.5512 74.9382 42.7042 75.4719 42.7042C75.8419 42.7042 76.1693 42.6729 76.4539 42.6103C76.7457 42.5408 77.0446 42.44 77.3505 42.3079V43.2257C77.0659 43.3508 76.7741 43.4447 76.4753 43.5073C76.1835 43.5699 75.8348 43.6012 75.4292 43.6012C74.8742 43.6012 74.3832 43.4934 73.9562 43.2778C73.5292 43.0623 73.1948 42.7425 72.9528 42.3183C72.718 41.8872 72.6006 41.3588 72.6006 40.733C72.6006 40.1003 72.7073 39.5649 72.9208 39.1268C73.1414 38.6888 73.4438 38.355 73.8281 38.1256C74.2195 37.8892 74.6749 37.771 75.1944 37.771ZM75.1944 38.6262C74.7888 38.6262 74.4614 38.7548 74.2124 39.0121C73.9704 39.2694 73.8281 39.6344 73.7854 40.1072H76.4966C76.4966 39.8152 76.4504 39.5579 76.3579 39.3354C76.2654 39.1129 76.123 38.9391 75.9309 38.8139C75.7388 38.6888 75.4933 38.6262 75.1944 38.6262Z" fill="#3D576B"/>
<path d="M66.8999 40.9414C66.8999 41.0248 66.8963 41.1326 66.8892 41.2647C66.8821 41.3968 66.875 41.5359 66.8678 41.6819C66.8607 41.8209 66.85 41.953 66.8358 42.0782C66.8287 42.1964 66.8216 42.2903 66.8145 42.3598L69.7712 37.875H71.1481V43.4966H70.0807V40.5033C70.0807 40.3712 70.0843 40.2078 70.0914 40.0131C70.0985 39.8184 70.1056 39.6307 70.1127 39.4499C70.127 39.2622 70.1377 39.1196 70.1448 39.0223L67.2094 43.4966H65.8218V37.875H66.8999V40.9414Z" fill="#3D576B"/>
<path d="M60.0846 37.875V40.1591H62.9239V37.875H64.0553V43.4966H62.9239V41.0457H60.0846V43.4966H58.9531V37.875H60.0846Z" fill="#3D576B"/>
<path d="M55.0545 37.771C55.7803 37.771 56.3211 37.9274 56.6769 38.2403C57.0327 38.5462 57.2106 39.0295 57.2106 39.69V43.4969H56.4101L56.1859 42.7146H56.1432C55.9795 42.9163 55.8088 43.0832 55.6309 43.2153C55.4601 43.3474 55.2608 43.4447 55.0331 43.5073C54.8125 43.5699 54.5421 43.6012 54.2219 43.6012C53.8803 43.6012 53.5708 43.5421 53.2932 43.4239C53.0228 43.2987 52.8093 43.111 52.6528 42.8607C52.4962 42.6034 52.418 42.2835 52.418 41.9011C52.418 41.331 52.6386 40.8964 53.0798 40.5974C53.5281 40.2984 54.2077 40.135 55.1185 40.1072L56.1005 40.0759V39.763C56.1005 39.3458 56.0045 39.0538 55.8123 38.8869C55.6202 38.7201 55.3498 38.6366 55.0011 38.6366C54.7022 38.6366 54.4176 38.6783 54.1472 38.7618C53.8768 38.8452 53.6206 38.946 53.3786 39.0642L53.0157 38.2612C53.2861 38.1221 53.5957 38.0074 53.9444 37.917C54.3002 37.8196 54.6702 37.771 55.0545 37.771ZM55.3213 40.8164C54.6666 40.8442 54.2112 40.952 53.955 41.1398C53.706 41.3205 53.5814 41.5778 53.5814 41.9116C53.5814 42.2036 53.6704 42.4157 53.8483 42.5478C54.0333 42.6799 54.2646 42.7459 54.5421 42.7459C54.9904 42.7459 55.3605 42.6242 55.6522 42.3809C55.944 42.1375 56.0898 41.7725 56.0898 41.2858V40.7956L55.3213 40.8164Z" fill="#3D576B"/>
<path d="M51.2781 39.3039C51.2781 39.6446 51.1714 39.9158 50.9579 40.1174C50.7516 40.3121 50.474 40.4442 50.1253 40.5137V40.5555C50.4954 40.6041 50.8085 40.7328 51.0647 40.9414C51.328 41.143 51.4596 41.442 51.4596 41.8383C51.4596 42.0817 51.4133 42.3042 51.3208 42.5058C51.2283 42.7075 51.086 42.8848 50.8939 43.0377C50.7017 43.1837 50.4527 43.2985 50.1467 43.3819C49.8478 43.4584 49.4849 43.4966 49.0579 43.4966H46.5068V37.875H49.0579C49.4778 37.875 49.8549 37.9202 50.1894 38.0106C50.5238 38.101 50.7871 38.2505 50.9793 38.4591C51.1785 38.6677 51.2781 38.9493 51.2781 39.3039ZM50.2855 41.8175C50.2855 41.5254 50.1716 41.3168 49.9439 41.1917C49.7162 41.0596 49.3782 40.9935 48.9298 40.9935H47.6383V42.6623H48.9512C49.371 42.6623 49.6984 42.5997 49.9332 42.4745C50.168 42.3424 50.2855 42.1234 50.2855 41.8175ZM50.1253 39.4291C50.1253 39.1857 50.0364 39.0084 49.8585 38.8971C49.6806 38.7859 49.3924 38.7303 48.9939 38.7303H47.6383V40.1487H48.8231C49.2501 40.1487 49.5738 40.0931 49.7944 39.9818C50.015 39.8636 50.1253 39.6794 50.1253 39.4291Z" fill="#3D576B"/>
<path d="M45.0725 40.6808C45.0725 41.1467 45.0084 41.5604 44.8803 41.922C44.7522 42.2835 44.5708 42.5895 44.336 42.8398C44.1011 43.0901 43.8165 43.2813 43.482 43.4134C43.1476 43.5386 42.7704 43.6012 42.3506 43.6012C41.9663 43.6012 41.6105 43.5386 41.2832 43.4134C40.9558 43.2813 40.6712 43.0901 40.4292 42.8398C40.1944 42.5895 40.0094 42.2835 39.8742 41.922C39.739 41.5604 39.6714 41.1432 39.6714 40.6704C39.6714 40.0516 39.7781 39.5266 39.9916 39.0955C40.2122 38.6644 40.5253 38.3376 40.9309 38.1151C41.3437 37.8857 41.8275 37.771 42.3826 37.771C42.9092 37.771 43.3717 37.8857 43.7702 38.1151C44.1758 38.3376 44.4925 38.6644 44.7202 39.0955C44.9551 39.5266 45.0725 40.0551 45.0725 40.6808ZM40.8349 40.6808C40.8349 41.098 40.8882 41.4596 40.995 41.7655C41.1017 42.0645 41.2689 42.294 41.4967 42.4539C41.7244 42.6138 42.0161 42.6938 42.3719 42.6938C42.7277 42.6938 43.0195 42.6138 43.2472 42.4539C43.4749 42.294 43.6421 42.0645 43.7489 41.7655C43.8556 41.4596 43.909 41.098 43.909 40.6808C43.909 40.2498 43.8521 39.8882 43.7382 39.5962C43.6315 39.3041 43.4642 39.0816 43.2365 38.9287C43.0159 38.7687 42.7242 38.6888 42.3613 38.6888C41.8275 38.6888 41.4397 38.8626 41.1978 39.2103C40.9558 39.5579 40.8349 40.0481 40.8349 40.6808Z" fill="#3D576B"/>
<path d="M38.076 37.875V42.6205H38.9192V45.4678H37.8625V43.4966H33.8918V45.4678H32.8457V42.6205H33.3047C33.6107 42.1894 33.8669 41.7166 34.0732 41.2021C34.2796 40.6876 34.4361 40.1487 34.5429 39.5855C34.6567 39.0153 34.7243 38.4452 34.7457 37.875H38.076ZM35.7277 38.7303C35.685 39.1822 35.6067 39.6446 35.4929 40.1174C35.3861 40.5902 35.2474 41.0422 35.0766 41.4733C34.9129 41.9044 34.7172 42.2868 34.4895 42.6205H36.9659V38.7303H35.7277Z" fill="#3D576B"/>
<path d="M27.2437 37.875H28.4605L29.656 41.0665C29.72 41.2264 29.777 41.3829 29.8268 41.5359C29.8766 41.6888 29.9193 41.8418 29.9549 41.9948C29.9976 42.1408 30.0296 42.2868 30.0509 42.4328H30.0936C30.1292 42.252 30.1861 42.04 30.2644 41.7966C30.3427 41.5463 30.4245 41.2994 30.5099 41.0561L31.6414 37.875H32.8582L30.3925 44.258C30.2573 44.6196 30.0901 44.929 29.8908 45.1862C29.6916 45.4505 29.4532 45.6521 29.1757 45.7912C28.9052 45.9302 28.585 45.9998 28.215 45.9998C28.0371 45.9998 27.8841 45.9893 27.756 45.9685C27.6279 45.9546 27.5176 45.9372 27.4251 45.9163V45.0402C27.5034 45.0541 27.5959 45.068 27.7026 45.0819C27.8165 45.0959 27.9339 45.1028 28.0549 45.1028C28.2755 45.1028 28.4641 45.0611 28.6206 44.9777C28.7843 44.8942 28.9195 44.776 29.0262 44.623C29.1401 44.4701 29.2361 44.2962 29.3144 44.1016L29.5492 43.4966L27.2437 37.875Z" fill="#3D576B"/>
<path d="M24.4753 37.771C25.1656 37.771 25.7206 38.0143 26.1405 38.501C26.5674 38.9878 26.7809 39.7144 26.7809 40.6808C26.7809 41.3136 26.6849 41.849 26.4927 42.287C26.3006 42.7251 26.0302 43.0553 25.6815 43.2778C25.3328 43.4934 24.9272 43.6012 24.4647 43.6012C24.1729 43.6012 23.9167 43.5664 23.6961 43.4969C23.4755 43.4204 23.2869 43.323 23.1304 43.2048C22.981 43.0797 22.8493 42.9476 22.7355 42.8085H22.6607C22.6821 42.9337 22.6999 43.0832 22.7141 43.257C22.7283 43.4239 22.7355 43.5733 22.7355 43.7055V46H21.604V37.8753H22.522L22.6821 38.6262H22.7355C22.8493 38.4732 22.9845 38.3307 23.1411 38.1986C23.2976 38.0665 23.4862 37.9622 23.7068 37.8857C23.9274 37.8092 24.1836 37.771 24.4753 37.771ZM24.2085 38.6783C23.8527 38.6783 23.568 38.7479 23.3545 38.8869C23.1411 39.0191 22.9845 39.2207 22.8849 39.4919C22.7924 39.7561 22.7426 40.0933 22.7355 40.5035V40.6704C22.7355 41.1015 22.7817 41.47 22.8742 41.776C22.9667 42.075 23.1197 42.3044 23.3332 42.4643C23.5538 42.6173 23.8527 42.6938 24.2298 42.6938C24.55 42.6938 24.8098 42.6103 25.009 42.4435C25.2154 42.2696 25.3684 42.0298 25.468 41.7238C25.5676 41.4179 25.6175 41.0633 25.6175 40.66C25.6175 40.0481 25.5036 39.5649 25.2759 39.2103C25.0482 38.8557 24.6924 38.6783 24.2085 38.6783Z" fill="#3D576B"/>
<path d="M20.1701 40.6808C20.1701 41.1467 20.1061 41.5604 19.978 41.922C19.8499 42.2835 19.6684 42.5895 19.4336 42.8398C19.1988 43.0901 18.9141 43.2813 18.5797 43.4134C18.2452 43.5386 17.8681 43.6012 17.4482 43.6012C17.064 43.6012 16.7082 43.5386 16.3808 43.4134C16.0535 43.2813 15.7688 43.0901 15.5269 42.8398C15.2921 42.5895 15.1071 42.2835 14.9718 41.922C14.8366 41.5604 14.769 41.1432 14.769 40.6704C14.769 40.0516 14.8758 39.5266 15.0893 39.0955C15.3099 38.6644 15.623 38.3376 16.0286 38.1151C16.4413 37.8857 16.9252 37.771 17.4803 37.771C18.0068 37.771 18.4694 37.8857 18.8679 38.1151C19.2735 38.3376 19.5902 38.6644 19.8179 39.0955C20.0527 39.5266 20.1701 40.0551 20.1701 40.6808ZM15.9325 40.6808C15.9325 41.098 15.9859 41.4596 16.0926 41.7655C16.1994 42.0645 16.3666 42.294 16.5943 42.4539C16.822 42.6138 17.1138 42.6938 17.4696 42.6938C17.8254 42.6938 18.1171 42.6138 18.3449 42.4539C18.5726 42.294 18.7398 42.0645 18.8465 41.7655C18.9533 41.4596 19.0066 41.098 19.0066 40.6808C19.0066 40.2498 18.9497 39.8882 18.8359 39.5962C18.7291 39.3041 18.5619 39.0816 18.3342 38.9287C18.1136 38.7687 17.8218 38.6888 17.4589 38.6888C16.9252 38.6888 16.5374 38.8626 16.2954 39.2103C16.0535 39.5579 15.9325 40.0481 15.9325 40.6808Z" fill="#3D576B"/>
<path d="M8.30664 40.1283C8.30664 39.3009 8.39559 38.5986 8.57349 38.0215C8.75851 37.4444 9.04315 36.9855 9.42742 36.6448C9.81168 36.2971 10.3098 36.0607 10.9218 35.9356C11.363 35.8521 11.7935 35.7756 12.2133 35.7061C12.6403 35.6366 13.053 35.574 13.4515 35.5184L13.6116 36.4883C13.4337 36.5092 13.2309 36.537 13.0032 36.5718C12.7826 36.6065 12.5549 36.6413 12.3201 36.6761C12.0924 36.7108 11.8718 36.7456 11.6583 36.7804C11.4519 36.8151 11.2669 36.8499 11.1032 36.8847C10.8542 36.9264 10.6336 36.9994 10.4415 37.1037C10.2564 37.208 10.0963 37.347 9.96112 37.5209C9.83303 37.6947 9.72985 37.9172 9.65157 38.1884C9.5733 38.4526 9.52704 38.7759 9.51281 39.1583H9.57685C9.67648 39.0262 9.80813 38.8906 9.97179 38.7516C10.1426 38.6125 10.3454 38.4978 10.5802 38.4074C10.8222 38.3101 11.0997 38.2614 11.4128 38.2614C11.8967 38.2614 12.3059 38.3657 12.6403 38.5743C12.9748 38.7759 13.2274 39.0645 13.3982 39.4399C13.569 39.8085 13.6543 40.25 13.6543 40.7645C13.6543 41.3972 13.5405 41.9257 13.3128 42.3498C13.0922 42.767 12.7791 43.0799 12.3735 43.2885C11.975 43.4971 11.5089 43.6014 10.9752 43.6014C10.5695 43.6014 10.2031 43.5284 9.87573 43.3824C9.54839 43.2294 9.26731 43.0069 9.03248 42.7149C8.79765 42.4159 8.61619 42.0508 8.4881 41.6197C8.36713 41.1886 8.30664 40.6915 8.30664 40.1283ZM11.0605 42.694C11.3452 42.694 11.5943 42.6349 11.8077 42.5167C12.0212 42.3985 12.1849 42.2073 12.2987 41.9431C12.4197 41.6788 12.4802 41.3242 12.4802 40.8792C12.4802 40.3438 12.3806 39.9197 12.1813 39.6068C11.9821 39.2939 11.6512 39.1375 11.1886 39.1375C10.904 39.1375 10.6407 39.2035 10.3988 39.3356C10.1639 39.4608 9.96468 39.6033 9.80101 39.7633C9.64446 39.9232 9.53416 40.0588 9.47011 40.17C9.47011 40.4968 9.49146 40.8097 9.53416 41.1087C9.58397 41.4077 9.6658 41.6754 9.77966 41.9118C9.90063 42.1482 10.0643 42.3394 10.2707 42.4854C10.477 42.6245 10.7403 42.694 11.0605 42.694Z" fill="#3D576B"/>
<path d="M7.09825 39.763C7.09825 40.3401 7.02353 40.8651 6.8741 41.3379C6.73178 41.8037 6.51118 42.207 6.2123 42.5477C5.92055 42.8884 5.55051 43.1492 5.1022 43.33C4.66101 43.5107 4.14509 43.6011 3.55446 43.6011C2.9496 43.6011 2.42301 43.5107 1.9747 43.33C1.53351 43.1422 1.16347 42.8815 0.864599 42.5477C0.572841 42.207 0.355802 41.8003 0.213481 41.3275C0.0711604 40.8546 0 40.3297 0 39.7526C0 38.9877 0.128089 38.3202 0.384266 37.7501C0.640444 37.1799 1.03183 36.7349 1.55841 36.4151C2.09212 36.0952 2.76102 35.9353 3.56514 35.9353C4.3479 35.9353 4.99902 36.0952 5.51849 36.4151C6.04508 36.728 6.44002 37.173 6.70331 37.7501C6.9666 38.3202 7.09825 38.9912 7.09825 39.763ZM1.21684 39.763C1.21684 40.361 1.29868 40.8755 1.46235 41.3066C1.62602 41.7307 1.88219 42.061 2.23088 42.2974C2.57957 42.5269 3.02076 42.6416 3.55446 42.6416C4.09528 42.6416 4.53648 42.5269 4.87805 42.2974C5.21962 42.061 5.47224 41.7307 5.6359 41.3066C5.79957 40.8755 5.88141 40.361 5.88141 39.763C5.88141 38.866 5.69639 38.1673 5.32636 37.6666C4.96344 37.1591 4.37637 36.9053 3.56514 36.9053C3.02432 36.9053 2.57957 37.02 2.23088 37.2494C1.88219 37.4789 1.62602 37.8057 1.46235 38.2298C1.29868 38.654 1.21684 39.165 1.21684 39.763Z" fill="#3D576B"/>
<path d="M126.725 14.0277C126.725 9.3282 123.213 5.08674 117.735 5.08674C112.016 5.08674 108.779 10.5126 108.779 14.0277C108.779 18.6514 112.395 23.0599 117.77 23.0599C123.282 23.0599 126.725 18.9905 126.725 14.0277ZM131.586 14.0277C131.586 21.8209 125.177 28.1466 117.735 28.1466C109.948 28.1466 103.919 21.573 103.919 13.6027C103.919 5.80946 110.396 0 117.77 0C125.384 0 131.586 6.12828 131.586 14.0277Z" fill="#0097AA"/>
<path fill-rule="evenodd" clip-rule="evenodd" d="M125.51 13.8842C124.605 14.0738 123.276 14.126 122.336 13.5034C121.324 12.8333 118.713 12.8138 117.612 13.8385C116.263 15.0947 111.102 14.8581 110.189 13.8389C110.115 13.7556 110.057 13.582 110.024 13.3397C110.002 13.5813 109.992 13.8259 109.992 14.0731C109.992 18.5145 113.466 22.115 117.752 22.115C122.038 22.115 125.512 18.5145 125.512 14.0731C125.512 14.01 125.511 13.947 125.51 13.8842Z" fill="#21DAFF"/>
<path fill-rule="evenodd" clip-rule="evenodd" d="M119.848 6.97815C119.913 6.70815 120.186 6.54155 120.458 6.60603C121.568 6.86932 123.966 8.06651 125.08 10.8112C125.185 11.0687 125.06 11.3615 124.8 11.4653C124.541 11.5692 124.246 11.4446 124.142 11.1872C123.178 8.81272 121.094 7.79036 120.223 7.58377C119.951 7.51929 119.783 7.24814 119.848 6.97815Z" fill="#21DAFF"/>
</svg>
