<svg width="166" height="46" fill="none" xmlns="http://www.w3.org/2000/svg"><path d="M82.252 16.466L82.4 28.13h-4.798V.785h4.65v10.534h1.176c1.488 0 2.035.174 3.428-.686L92.839.67h5.344l-7.884 12.694 4.242 7.204c1.57 2.76 2.818 2.262 3.894 2.262.254 0 .507-.036.76-.036v5.337c-2.754 0-5.901.5-8.497-4.158l-4.528-7.85c-.342.343-1.713.343-2.266.343h-1.652zm75.651-5.073l-7.4 9.163-7.446-9.163V28.19h-4.724V4.69L134.959.67h5.399l10.122 12.732L160.939.67H166l-3.374 4.021v23.5h-4.723V11.393zM57.695 17.089v7.101h14.342v4.001H53.11V.806h17.463v4.22H57.695v8.042c1.497-.954 2.101-.992 3.731-.992h5.422v4.075h-5.422c-1.596 0-2.234.057-3.731.938zm-21.54-4.572h4.39c2.362 0 3.66-1.249 3.66-3.892 0-2.753-1.265-3.78-3.66-3.78H32.39v8.558c1.497-.954 2.135-.886 3.765-.886zM32.39 28.19h-4.584V.806h12.74c4.39 0 7.25 2.937 7.25 7.82 0 4.845-2.86 7.929-7.25 7.929h-4.391c-1.597 0-2.268-.012-3.765.87V28.19zm-11.9.001h-4.632V4.844H4.724v23.303L0 28.19V.806h20.49v27.385z" fill="#0097AA"/><path d="M159.178 40.629l-1.953-2.754h1.292l1.366 2.023 1.366-2.023h1.281l-1.953 2.754 2.049 2.868h-1.281l-1.462-2.149-1.473 2.149h-1.281l2.049-2.868zm-9.839 2.868v-5.622h1.131v2.263h1.271c.526 0 .96.063 1.302.188.341.118.594.295.758.532.163.236.245.535.245.897 0 .354-.082.664-.245.928-.157.257-.406.459-.748.605-.334.14-.775.209-1.323.209h-2.391zm2.305-.835c.378 0 .684-.062.918-.188.242-.132.363-.358.363-.677 0-.306-.11-.515-.331-.626-.22-.118-.537-.178-.95-.178h-1.174v1.67h1.174zm3.32.835v-5.622h1.132v5.622h-1.132zm-11.363-5.622v2.284h2.839v-2.284h1.131v5.622h-1.131v-2.451h-2.839v2.45h-1.132v-5.621h1.132zm-6.821 2.055c0 .299.085.521.256.667.171.146.413.22.726.22a3.1 3.1 0 00.939-.136 5.57 5.57 0 00.865-.386v-2.42h1.131v5.622h-1.131v-2.43a4.665 4.665 0 01-.918.448 3.32 3.32 0 01-1.11.167c-.591 0-1.053-.15-1.388-.449-.334-.305-.502-.723-.502-1.251v-2.107h1.132v2.055zm-4.839-2.159c.506 0 .94.104 1.303.313.363.201.64.493.832.876.2.382.299.834.299 1.356v.605h-3.864c.014.577.167 1.018.459 1.324.299.306.715.46 1.249.46.37 0 .697-.032.982-.095.292-.07.591-.17.897-.302v.918a4.436 4.436 0 01-.876.281c-.291.063-.64.094-1.046.094-.555 0-1.046-.108-1.473-.323a2.357 2.357 0 01-1.003-.96c-.235-.43-.352-.96-.352-1.585 0-.633.106-1.168.32-1.606a2.37 2.37 0 01.907-1.001c.392-.237.847-.355 1.366-.355zm0 .855c-.405 0-.733.129-.982.386-.242.257-.384.622-.427 1.095h2.712c0-.292-.047-.55-.139-.772a1.121 1.121 0 00-.427-.521c-.192-.125-.438-.188-.737-.188zm-7.951 1.304c0 .299.085.521.256.667.171.146.413.22.726.22a3.1 3.1 0 00.939-.136 5.57 5.57 0 00.865-.386v-2.42h1.131v5.622h-1.131v-2.43a4.665 4.665 0 01-.918.448 3.32 3.32 0 01-1.11.167c-.591 0-1.053-.15-1.388-.449-.334-.305-.502-.723-.502-1.251v-2.107h1.132v2.055zm-4.891-2.159c.726 0 1.267.156 1.622.47.356.305.534.788.534 1.449v3.807h-.8l-.225-.782h-.042a2.881 2.881 0 01-.513.5c-.17.132-.37.23-.597.292a3.015 3.015 0 01-.812.094c-.341 0-.651-.059-.928-.177a1.466 1.466 0 01-.641-.563c-.156-.258-.235-.578-.235-.96 0-.57.221-1.005.662-1.304.449-.299 1.128-.462 2.039-.49l.982-.031v-.313c0-.417-.096-.71-.288-.876-.192-.167-.463-.25-.811-.25a2.86 2.86 0 00-.854.125 5.3 5.3 0 00-.769.302l-.363-.803c.271-.139.58-.254.929-.344a4.187 4.187 0 011.11-.146zm.267 3.045c-.655.028-1.11.136-1.367.324-.249.18-.373.438-.373.772 0 .292.089.504.267.636.185.132.416.198.694.198.448 0 .818-.122 1.11-.365.291-.243.437-.608.437-1.095v-.49l-.768.02zm-6.246-3.045c.691 0 1.246.243 1.665.73.427.487.641 1.213.641 2.18 0 .633-.096 1.168-.288 1.606-.192.438-.463.768-.811.99a2.269 2.269 0 01-1.217.324c-.292 0-.548-.035-.769-.104a2.059 2.059 0 01-.566-.292 3.015 3.015 0 01-.395-.396h-.074c.021.125.039.274.053.448.014.167.021.316.021.449V46h-1.131v-8.125h.918l.16.751h.053c.114-.153.25-.295.406-.427.157-.133.345-.237.566-.313.22-.077.477-.115.768-.115zm-.267.907c-.355 0-.64.07-.853.209-.214.132-.37.334-.47.605-.093.264-.142.601-.15 1.012v.166c0 .431.047.8.139 1.106.093.299.246.528.459.688.221.153.52.23.897.23.32 0 .58-.084.779-.25.206-.174.359-.414.459-.72.1-.306.149-.66.149-1.064 0-.612-.113-1.095-.341-1.45-.228-.354-.584-.532-1.068-.532zm-4.374-.803v5.622h-1.131v-4.725h-2.712v4.725h-1.131v-5.622h4.974zm-13.312 5.622h-1.281l1.622-2.316c-.22-.07-.43-.167-.63-.292a1.411 1.411 0 01-.47-.521c-.12-.223-.18-.494-.18-.814 0-.542.195-.956.586-1.24.392-.293.904-.439 1.537-.439h2.605v5.622h-1.132v-2.19h-1.238l-1.42 2.19zm.16-3.932c0 .299.114.525.341.678.228.146.545.219.95.219h1.207V38.73h-1.399c-.391 0-.672.08-.843.24a.782.782 0 00-.256.595zm-2.44 3.932h-1.142v-4.735h-1.623c-.071.862-.16 1.602-.267 2.221-.1.612-.231 1.11-.395 1.492-.156.382-.352.663-.587.844a1.315 1.315 0 01-.822.261c-.114 0-.224-.01-.33-.031a1.005 1.005 0 01-.278-.073v-.845l.16.042c.064.007.128.01.192.01.142 0 .27-.056.384-.167.121-.111.228-.285.32-.521.1-.237.19-.543.267-.918.086-.383.157-.838.214-1.366.064-.529.12-1.14.17-1.836h3.737v5.622zm-6.537-5.622v4.745h.843v2.848h-1.057v-1.971h-3.97v1.97h-1.047v-2.846h.46c.305-.432.561-.904.768-1.419a8.668 8.668 0 00.47-1.616c.113-.57.18-1.14.202-1.711h3.33zM84 38.73c-.043.452-.12.915-.235 1.387a9.134 9.134 0 01-.416 1.356 5.47 5.47 0 01-.587 1.148h2.476v-3.89H84zm-8.806-.959c.506 0 .94.104 1.303.313.362.201.64.493.832.876.2.382.3.834.3 1.356v.605h-3.865c.014.577.167 1.018.459 1.324.299.306.715.46 1.249.46.37 0 .697-.032.982-.095.292-.07.59-.17.897-.302v.918a4.425 4.425 0 01-.876.281c-.291.063-.64.094-1.046.094-.555 0-1.046-.108-1.473-.323a2.358 2.358 0 01-1.003-.96c-.235-.43-.352-.96-.352-1.585 0-.633.106-1.168.32-1.606a2.37 2.37 0 01.907-1.001c.391-.237.847-.355 1.366-.355zm0 .855c-.405 0-.733.129-.982.386-.242.257-.384.622-.427 1.095h2.712c0-.292-.047-.55-.14-.772a1.118 1.118 0 00-.426-.521c-.192-.125-.438-.188-.737-.188zM66.9 40.941c0 .084-.004.192-.01.324-.008.132-.015.27-.022.417a6.433 6.433 0 01-.032.396 7.118 7.118 0 01-.022.282l2.957-4.485h1.377v5.622h-1.067v-2.994c0-.132.003-.295.01-.49l.022-.563.032-.428-2.936 4.475h-1.387v-5.622H66.9v3.066zm-6.815-3.066v2.284h2.839v-2.284h1.131v5.622h-1.131v-2.451h-2.84v2.45h-1.13v-5.621h1.13zm-5.031-.104c.726 0 1.267.156 1.623.47.356.305.534.788.534 1.449v3.807h-.8l-.225-.782h-.043a2.872 2.872 0 01-.512.5c-.17.132-.37.23-.598.292-.22.063-.49.094-.811.094-.342 0-.651-.059-.929-.177a1.465 1.465 0 01-.64-.563c-.157-.258-.235-.578-.235-.96 0-.57.22-1.005.662-1.304.448-.299 1.128-.462 2.038-.49l.982-.031v-.313c0-.417-.096-.71-.288-.876-.192-.167-.462-.25-.81-.25-.3 0-.584.041-.855.125-.27.083-.526.184-.768.302l-.363-.803c.27-.139.58-.254.928-.344a4.185 4.185 0 011.11-.146zm.267 3.045c-.654.028-1.11.136-1.366.324-.249.18-.374.438-.374.772 0 .292.09.504.267.636.185.132.417.198.694.198.448 0 .819-.122 1.11-.365.292-.243.438-.608.438-1.095v-.49l-.769.02zm-4.043-1.512c0 .34-.107.612-.32.813-.206.195-.484.327-.833.397v.041c.37.05.684.178.94.386.263.202.395.501.395.897 0 .244-.047.466-.14.668a1.452 1.452 0 01-.426.532c-.192.146-.441.26-.747.344a4.451 4.451 0 01-1.09.115h-2.55v-5.622h2.55c.42 0 .798.045 1.132.136.335.09.598.24.79.448.2.209.3.49.3.845zm-.992 2.514c0-.293-.114-.501-.342-.626-.228-.132-.566-.199-1.014-.199h-1.292v1.67h1.313c.42 0 .747-.063.982-.188.235-.133.352-.352.352-.657zm-.16-2.389c0-.243-.09-.42-.267-.532-.178-.111-.467-.167-.865-.167h-1.356v1.419h1.185c.427 0 .75-.056.971-.167a.586.586 0 00.331-.553zm-5.054 1.251c0 .467-.064.88-.192 1.242-.128.361-.31.668-.544.918a2.33 2.33 0 01-.854.573 3.21 3.21 0 01-1.131.188 2.95 2.95 0 01-1.068-.188 2.448 2.448 0 01-.854-.573 2.71 2.71 0 01-.555-.918 3.562 3.562 0 01-.203-1.252c0-.618.107-1.143.32-1.575.221-.43.534-.757.94-.98.413-.23.897-.344 1.452-.344.526 0 .989.115 1.387.344.406.223.722.55.95.98.235.432.352.96.352 1.586zm-4.237 0c0 .418.053.78.16 1.086.107.299.274.528.502.688.227.16.52.24.875.24.356 0 .648-.08.875-.24.228-.16.395-.39.502-.688a3.3 3.3 0 00.16-1.085c0-.431-.057-.793-.17-1.085a1.321 1.321 0 00-.502-.667c-.221-.16-.513-.24-.876-.24-.533 0-.921.174-1.163.521-.242.348-.363.838-.363 1.47zm-2.759-2.805v4.745h.843v2.848h-1.056v-1.971h-3.971v1.97h-1.046v-2.846h.459c.306-.432.562-.904.768-1.419a8.668 8.668 0 00.47-1.616c.114-.57.181-1.14.203-1.711h3.33zm-2.348.855a9.913 9.913 0 01-.235 1.387 9.146 9.146 0 01-.416 1.356 5.54 5.54 0 01-.587 1.148h2.476v-3.89h-1.238zm-8.484-.855h1.216l1.196 3.191a7.102 7.102 0 01.299.929c.043.146.075.292.096.438h.043a5.75 5.75 0 01.17-.636c.079-.25.16-.498.246-.74l1.131-3.182h1.217l-2.465 6.383a3.513 3.513 0 01-.502.928c-.2.264-.438.466-.715.605-.27.14-.591.209-.961.209-.178 0-.33-.01-.459-.032a2.987 2.987 0 01-.33-.052v-.876c.077.014.17.028.277.042.114.014.23.02.352.02.22 0 .41-.04.566-.124.163-.084.299-.202.405-.355a2.31 2.31 0 00.288-.521l.235-.605-2.305-5.622zm-2.769-.104c.69 0 1.246.243 1.665.73.427.487.64 1.213.64 2.18 0 .633-.095 1.168-.287 1.606-.192.438-.463.768-.811.99a2.266 2.266 0 01-1.217.324c-.292 0-.548-.035-.769-.104a2.041 2.041 0 01-.566-.292 2.978 2.978 0 01-.395-.396h-.074c.021.125.039.274.053.448.014.167.021.316.021.449V46h-1.131v-8.125h.918l.16.751h.053c.114-.153.25-.295.406-.427.157-.133.345-.237.566-.313.22-.077.477-.115.768-.115zm-.267.907c-.355 0-.64.07-.853.209-.214.132-.37.334-.47.605-.093.264-.142.601-.15 1.012v.166c0 .431.047.8.14 1.106.092.299.245.528.458.688.22.153.52.23.897.23.32 0 .58-.084.779-.25.206-.174.36-.414.459-.72.1-.306.15-.66.15-1.064 0-.612-.114-1.095-.342-1.45-.228-.354-.584-.532-1.067-.532zM20.17 40.68c0 .467-.064.88-.192 1.242-.128.361-.31.668-.544.918a2.33 2.33 0 01-.854.573 3.21 3.21 0 01-1.132.188c-.384 0-.74-.062-1.067-.188a2.448 2.448 0 01-.854-.573 2.712 2.712 0 01-.555-.918 3.562 3.562 0 01-.203-1.252c0-.618.107-1.143.32-1.575.22-.43.534-.757.94-.98.412-.23.896-.344 1.451-.344.527 0 .99.115 1.388.344.405.223.722.55.95.98.235.432.352.96.352 1.586zm-4.238 0c0 .418.054.78.16 1.086.107.299.275.528.502.688.228.16.52.24.876.24.355 0 .647-.08.875-.24.228-.16.395-.39.502-.688.106-.306.16-.668.16-1.085 0-.431-.057-.793-.171-1.085a1.322 1.322 0 00-.502-.667c-.22-.16-.512-.24-.875-.24-.534 0-.922.174-1.164.521-.242.348-.363.838-.363 1.47zm-7.625-.552c0-.827.089-1.53.266-2.106.186-.578.47-1.036.854-1.377.385-.348.883-.584 1.495-.71a55.18 55.18 0 012.53-.417l.16.97c-.178.021-.381.049-.609.084-.22.034-.448.07-.683.104l-.662.104c-.206.035-.391.07-.555.105-.249.041-.47.114-.662.219a1.598 1.598 0 00-.48.417 2.1 2.1 0 00-.31.667 3.981 3.981 0 00-.138.97h.064c.1-.132.231-.267.395-.406.17-.14.373-.254.608-.345.242-.097.52-.146.833-.146.484 0 .893.105 1.227.313a1.9 1.9 0 01.758.866c.171.369.256.81.256 1.325 0 .632-.114 1.16-.341 1.585-.22.417-.534.73-.94.938-.398.21-.864.313-1.398.313a2.67 2.67 0 01-1.1-.219 2.348 2.348 0 01-.843-.667 3.253 3.253 0 01-.544-1.095 5.538 5.538 0 01-.181-1.492zm2.753 2.566c.285 0 .534-.06.748-.177.213-.119.377-.31.49-.574.122-.264.182-.619.182-1.064 0-.535-.1-.96-.299-1.272-.199-.313-.53-.47-.992-.47-.285 0-.548.066-.79.199a2.591 2.591 0 00-.598.427 2.2 2.2 0 00-.33.407c0 .327.02.64.063.939.05.299.132.566.246.803.12.236.284.427.49.573.207.14.47.209.79.209zm-3.962-2.931a5.21 5.21 0 01-.224 1.575 3.243 3.243 0 01-.662 1.21c-.291.34-.661.601-1.11.782-.441.18-.957.271-1.548.271-.604 0-1.131-.09-1.58-.271a3.09 3.09 0 01-1.11-.782 3.32 3.32 0 01-.65-1.22A5.452 5.452 0 010 39.752c0-.765.128-1.433.384-2.003a2.929 2.929 0 011.174-1.335c.534-.32 1.203-.48 2.007-.48.783 0 1.434.16 1.953.48a2.92 2.92 0 011.185 1.335c.264.57.395 1.241.395 2.013zm-5.881 0c0 .598.082 1.113.245 1.544.164.424.42.754.769.99.349.23.79.345 1.323.345.541 0 .982-.115 1.324-.345.342-.236.594-.566.758-.99.164-.431.245-.946.245-1.544 0-.897-.185-1.596-.555-2.096-.363-.508-.95-.762-1.76-.762-.542 0-.986.115-1.335.344-.349.23-.605.557-.769.98-.163.425-.245.936-.245 1.534z" fill="#3D576B"/><path d="M126.725 14.028c0-4.7-3.512-8.941-8.99-8.941-5.719 0-8.956 5.426-8.956 8.94 0 4.624 3.616 9.033 8.991 9.033 5.512 0 8.955-4.07 8.955-9.032zm4.861 0c0 7.793-6.409 14.119-13.851 14.119-7.787 0-13.816-6.574-13.816-14.544C103.919 5.809 110.396 0 117.77 0c7.614 0 13.816 6.128 13.816 14.028z" fill="#0097AA"/><path fill-rule="evenodd" clip-rule="evenodd" d="M125.51 13.884c-.905.19-2.234.242-3.174-.38-1.012-.67-3.623-.69-4.724.335-1.349 1.256-6.51 1.02-7.423 0-.074-.083-.132-.257-.165-.5a8.087 8.087 0 00-.032.734c0 4.442 3.474 8.042 7.76 8.042s7.76-3.6 7.76-8.042l-.002-.189zm-5.662-6.906a.506.506 0 01.61-.372c1.11.263 3.508 1.46 4.622 4.205a.506.506 0 01-.938.376c-.964-2.374-3.048-3.397-3.919-3.603a.503.503 0 01-.375-.606z" fill="#21DAFF"/></svg>