<svg width="24" height="16" fill="none" xmlns="http://www.w3.org/2000/svg"><path d="M17.912 7.969c2.935 1.57 4.92 3.862 5.966 6.952.023.068.039.139.067.205.12.273.052.372-.266.369a118.501 118.501 0 00-3.507 0 .461.461 0 01-.521-.363c-.747-1.996-2.019-3.534-3.996-4.442a7.247 7.247 0 00-1.737-.52c-.304-.049-.368.043-.368.326.01 1.497-.014 2.997.016 4.492 0 .436-.129.52-.532.508-2.482-.033-4.843-.52-6.98-1.835C3.68 12.189 2.16 10.04 1.2 7.456.418 5.36.092 3.173 0 .946-.01.616.06.507.415.507a72.4 72.4 0 003.246 0c.348 0 .47.09.478.447a15.2 15.2 0 00.912 5.075c.674 1.792 1.67 3.345 3.38 4.334.25.142.509.266.777.37.458.174.479.16.48-.319v-5.7c0-1.267.013-2.536 0-3.803-.01-.331.091-.404.407-.404.995.02 1.992.024 2.988 0 .37 0 .493.075.488.47-.02 1.67 0 3.343-.02 5.01 0 .384.091.469.465.37 1.245-.333 2.223-1.063 3.076-1.99A9.268 9.268 0 0019.136.901a.47.47 0 01.55-.394c1.024.02 2.049.017 3.074 0 .309 0 .394.06.314.388-.709 2.905-2.376 5.14-4.808 6.835-.104.072-.2.14-.354.239z" fill="#0097AA"/></svg>