<svg width="22" height="24" fill="none" xmlns="http://www.w3.org/2000/svg"><path fill-rule="evenodd" clip-rule="evenodd" d="M0 12C0 5.658 4.933.5 10.997.5h.006C17.067.5 22 5.66 22 12s-4.933 11.5-10.997 11.5c-2.237 0-4.312-.696-6.051-1.9L.724 23.013l1.37-4.273A11.767 11.767 0 010 12zm7.053-6.01c.328.014.492.035.708.589l.27.702c.3.777.674 1.747.732 1.877.078.175.157.413.046.645a1.967 1.967 0 01-.327.505l-.034.041a6.92 6.92 0 01-.207.243c-.092.104-.184.208-.277.332l-.008.01c-.149.186-.31.389-.123.733.19.343.845 1.486 1.808 2.403 1.143 1.088 2.087 1.496 2.512 1.68l.102.044c.268.12.59.092.786-.133.213-.245.469-.63.735-1.03l.136-.203c.223-.336.504-.379.8-.26.3.113 1.893.954 2.22 1.129.067.036.13.068.187.097.223.115.373.192.435.31.08.146.08.84-.19 1.653-.268.813-1.336 1.486-2.188 1.682-.582.133-1.343.239-3.904-.897-3.034-1.343-5.067-4.497-5.481-5.138a4.012 4.012 0 00-.068-.104l-.016-.024C5.499 12.572 4.4 10.965 4.4 9.305c0-1.662.767-2.497 1.111-2.87l.029-.031c.268-.295.714-.428 1.14-.428.124 0 .249.005.373.014z" fill="#0097AA"/></svg>